<svg id="Layer_1" data-name="Layer 1" xmlns="http://www.w3.org/2000/svg" viewBox="0 0 1361.81 1361.81"><defs><style>.cls-1{fill:#a5e65a;}.cls-2{fill:#003f63;}</style></defs><title>Colour</title><path class="cls-1" d="M840.58,890l-43.24,37.68-112.93,98.43L566.69,925.18,523,887.71,475.48,920.2l43.7,37.47,165.54,141.92L844.49,960.32l43.24-37.67Z"/><polygon class="cls-1" points="887.73 922.64 844.49 960.32 797.34 927.65 680.96 846.98 566.69 925.18 519.18 957.67 475.48 920.2 522.99 887.71 681.16 779.46 840.58 889.98 887.73 922.64"/><path class="cls-2" d="M733.23,615.13a51.76,51.76,0,1,0-76.66,45.41L639.21,750h85.65l-17.47-90A51.71,51.71,0,0,0,733.23,615.13Z"/><path class="cls-1" d="M680.89,262.22C487.43,262.22,330,419.61,330,613.11A349.7,349.7,0,0,0,436.25,864.35l46.95-32.13a294.59,294.59,0,0,1-97.57-219.11c0-162.83,132.46-295.29,295.26-295.29S976.18,450.28,976.18,613.11a294.59,294.59,0,0,1-98.06,219.55l46.73,32.41a349.82,349.82,0,0,0,106.93-252C1031.78,419.61,874.38,262.22,680.89,262.22Z"/><path class="cls-2" d="M680.89,351.18c-144.4,0-261.9,117.5-261.9,261.93a260.6,260.6,0,0,0,54.16,159.28l46-31.45a205.08,205.08,0,0,1-44.51-127.83c0-113.76,92.54-206.33,206.3-206.33s206.33,92.57,206.33,206.33a205.14,205.14,0,0,1-44.75,128.12L888.22,773a260.52,260.52,0,0,0,54.6-159.84C942.82,468.68,825.32,351.18,680.89,351.18Z"/><path class="cls-2" d="M680.89,438.72c-96.14,0-174.36,78.22-174.36,174.39a173.39,173.39,0,0,0,39,109.75l46.08-31.54a118.78,118.78,0,1,1,178.7-.11L816.16,723a173.41,173.41,0,0,0,39.12-109.91C855.28,516.94,777.06,438.72,680.89,438.72Z"/></svg>