<svg id="Layer_1" data-name="Layer 1" xmlns="http://www.w3.org/2000/svg" viewBox="0 0 1361.81 1361.81"><defs><style>.cls-1{fill:#353d40;}.cls-2{fill:#a5e65a;}.cls-3{fill:#003f63;}</style></defs><title>Colour</title><path class="cls-1" d="M284.06,1192.71c.21,5.43,5,7.15,9.93,7.15,3.79,0,8.93-.86,8.93-5.5,0-9.51-24.15-3.08-24.15-17.3,0-7.43,7.29-10.5,13.79-10.5,8.29,0,14.58,2.57,15.15,11.57h-6.07c-.36-4.71-4.65-6.21-8.58-6.21-3.64,0-7.86,1-7.86,4.71,0,4.29,6.43,5.15,12.08,6.44,6.07,1.35,12.07,3.43,12.07,10.5,0,8.86-8.21,11.65-15.72,11.65-8.29,0-15.29-3.36-15.65-12.51Z"/><path class="cls-1" d="M316.07,1167.42h5.72v5.43h.14a13.39,13.39,0,0,1,11.94-6.29c4.57,0,8.64,1.71,10.14,6.29a13.4,13.4,0,0,1,11.58-6.29c7.36,0,12.29,3.07,12.29,10.72v27.08h-6.07v-24.22c0-4.58-1.22-8.22-7.15-8.22s-9.65,3.71-9.65,9.43v23h-6.07v-24.22c0-4.79-1.5-8.22-6.93-8.22-7.15,0-9.86,6.57-9.86,9.43v23h-6.08Z"/><path class="cls-1" d="M409.76,1204.22a8.63,8.63,0,0,1-4.36,1c-3.15,0-5.15-1.72-5.15-5.72-3.36,4-7.86,5.72-13,5.72-6.72,0-12.22-2.93-12.22-10.36,0-8.36,6.21-10.22,12.5-11.37,6.65-1.35,12.44-.78,12.44-5.43,0-5.36-4.43-6.14-8.22-6.14-5.15,0-8.94,1.57-9.22,7h-6.07c.35-9.15,7.36-12.36,15.64-12.36,6.65,0,13.87,1.5,13.87,10.14v19c0,2.86,0,4.15,1.93,4.15a6,6,0,0,0,1.86-.36Zm-9.87-18.94c-4.71,3.5-18.43.07-18.43,9.15,0,4,3.43,5.43,7.14,5.43,8,0,11.29-4.93,11.29-8.36Z"/><path class="cls-1" d="M415.19,1167.42h5.71v7.78h.15c2.93-6,7-8.86,13.57-8.64V1173c-9.79,0-13.36,5.5-13.36,14.93v16.44h-6.07Z"/><path class="cls-1" d="M447.63,1167.42H455v5.36h-7.36v22.93c0,2.86.78,3.29,4.57,3.29H455v5.36h-4.65c-6.29,0-8.79-1.29-8.79-8.07v-23.51h-6.28v-5.36h6.28v-11.08h6.08Z"/><path class="cls-1" d="M514.3,1204.22a8.57,8.57,0,0,1-4.36,1c-3.14,0-5.14-1.72-5.14-5.72-3.36,4-7.87,5.72-13,5.72-6.72,0-12.22-2.93-12.22-10.36,0-8.36,6.22-10.22,12.51-11.37,6.64-1.35,12.43-.78,12.43-5.43,0-5.36-4.43-6.14-8.22-6.14-5.14,0-8.93,1.57-9.22,7H481c.36-9.15,7.36-12.36,15.65-12.36,6.64,0,13.86,1.5,13.86,10.14v19c0,2.86,0,4.15,1.93,4.15a5.93,5.93,0,0,0,1.86-.36Zm-9.86-18.94c-4.72,3.5-18.44.07-18.44,9.15,0,4,3.43,5.43,7.15,5.43,8,0,11.29-4.93,11.29-8.36Z"/><path class="cls-1" d="M523.66,1192.71c.21,5.43,5,7.15,9.93,7.15,3.79,0,8.93-.86,8.93-5.5,0-9.51-24.15-3.08-24.15-17.3,0-7.43,7.29-10.5,13.79-10.5,8.29,0,14.58,2.57,15.15,11.57h-6.07c-.36-4.71-4.65-6.21-8.58-6.21-3.64,0-7.86,1-7.86,4.71,0,4.29,6.43,5.15,12.08,6.44,6.07,1.35,12.08,3.43,12.08,10.5,0,8.86-8.22,11.65-15.73,11.65-8.28,0-15.29-3.36-15.65-12.51Z"/><path class="cls-1" d="M559.39,1192.71c.21,5.43,5,7.15,9.93,7.15,3.79,0,8.93-.86,8.93-5.5,0-9.51-24.15-3.08-24.15-17.3,0-7.43,7.29-10.5,13.79-10.5,8.29,0,14.58,2.57,15.15,11.57H577c-.36-4.71-4.65-6.21-8.58-6.21-3.64,0-7.86,1-7.86,4.71,0,4.29,6.43,5.15,12.08,6.44,6.07,1.35,12.08,3.43,12.08,10.5,0,8.86-8.22,11.65-15.73,11.65-8.28,0-15.29-3.36-15.65-12.51Z"/><path class="cls-1" d="M622.92,1192.64c-1.65,8.22-7.43,12.58-15.8,12.58-11.79,0-17.36-8.22-17.72-19.44,0-11.15,7.29-19.22,17.37-19.22,13.07,0,17.08,12.22,16.72,21.15H595.83c-.21,6.43,3.43,12.15,11.51,12.15,5.07,0,8.5-2.36,9.57-7.22Zm-5.86-10.29c-.36-5.79-4.58-10.43-10.65-10.43-6.29,0-10.22,4.71-10.58,10.43Z"/><path class="cls-1" d="M638.21,1167.42h7.36v5.36h-7.36v22.93c0,2.86.78,3.29,4.57,3.29h2.79v5.36h-4.65c-6.28,0-8.79-1.29-8.79-8.07v-23.51h-6.28v-5.36h6.28v-11.08h6.08Z"/><path class="cls-1" d="M672.15,1167.42h5.72v5.43H678a13.38,13.38,0,0,1,11.93-6.29c4.58,0,8.65,1.71,10.15,6.29a13.4,13.4,0,0,1,11.58-6.29c7.36,0,12.29,3.07,12.29,10.72v27.08h-6.08v-24.22c0-4.58-1.21-8.22-7.14-8.22s-9.65,3.71-9.65,9.43v23H695v-24.22c0-4.79-1.5-8.22-6.93-8.22-7.15,0-9.87,6.57-9.87,9.43v23h-6.07Z"/><path class="cls-1" d="M765.83,1204.22a8.56,8.56,0,0,1-4.35,1c-3.15,0-5.15-1.72-5.15-5.72-3.36,4-7.86,5.72-13,5.72-6.71,0-12.22-2.93-12.22-10.36,0-8.36,6.22-10.22,12.51-11.37,6.65-1.35,12.43-.78,12.43-5.43,0-5.36-4.43-6.14-8.21-6.14-5.15,0-8.94,1.57-9.22,7h-6.08c.36-9.15,7.36-12.36,15.65-12.36,6.65,0,13.87,1.5,13.87,10.14v19c0,2.86,0,4.15,1.93,4.15a5.87,5.87,0,0,0,1.85-.36ZM756,1185.28c-4.71,3.5-18.43.07-18.43,9.15,0,4,3.43,5.43,7.14,5.43,8,0,11.29-4.93,11.29-8.36Z"/><path class="cls-1" d="M771.48,1167.42h5.72v5.86h.14c2.57-4.58,6.64-6.72,12-6.72,9.72,0,12.72,5.57,12.72,13.5v24.3H796v-25c0-4.57-2.86-7.43-7.5-7.43-7.36,0-10.94,4.93-10.94,11.57v20.87h-6.07Z"/><path class="cls-1" d="M843.94,1204.22a8.57,8.57,0,0,1-4.36,1c-3.14,0-5.14-1.72-5.14-5.72-3.36,4-7.86,5.72-13,5.72-6.72,0-12.22-2.93-12.22-10.36,0-8.36,6.22-10.22,12.51-11.37,6.64-1.35,12.43-.78,12.43-5.43,0-5.36-4.43-6.14-8.22-6.14-5.14,0-8.93,1.57-9.22,7h-6.07c.36-9.15,7.36-12.36,15.65-12.36,6.64,0,13.86,1.5,13.86,10.14v19c0,2.86,0,4.15,1.93,4.15a5.93,5.93,0,0,0,1.86-.36Zm-9.86-18.94c-4.72,3.5-18.44.07-18.44,9.15,0,4,3.43,5.43,7.15,5.43,8,0,11.29-4.93,11.29-8.36Z"/><path class="cls-1" d="M881.45,1201.22c0,12.07-5.43,18.15-17.15,18.15-6.93,0-14.93-2.86-15.29-10.87h6.08c.21,4.37,5.64,6,9.57,6,7.93,0,11.08-5.72,11.08-14v-2.43h-.15c-2.07,4.5-6.78,6.72-11.5,6.72-11,0-16.51-8.65-16.51-18.72,0-8.72,4.22-19.51,17.08-19.51,4.65,0,8.79,2.07,11,6.14h.07v-5.28h5.71Zm-6-16.08c0-6.51-2.86-13.22-10.5-13.22-7.79,0-10.94,6.36-10.94,13.43,0,6.65,2.43,14.08,10.44,14.08S875.45,1192.07,875.45,1185.14Z"/><path class="cls-1" d="M922.11,1192.64c-1.64,8.22-7.43,12.58-15.79,12.58-11.79,0-17.36-8.22-17.72-19.44,0-11.15,7.29-19.22,17.36-19.22,13.08,0,17.08,12.22,16.73,21.15H895c-.21,6.43,3.43,12.15,11.51,12.15,5.07,0,8.5-2.36,9.57-7.22Zm-5.86-10.29c-.35-5.79-4.57-10.43-10.64-10.43-6.29,0-10.22,4.71-10.58,10.43Z"/><path class="cls-1" d="M929,1167.42h5.72v5.43h.14a13.39,13.39,0,0,1,11.94-6.29c4.57,0,8.64,1.71,10.14,6.29a13.42,13.42,0,0,1,11.58-6.29c7.36,0,12.29,3.07,12.29,10.72v27.08h-6.07v-24.22c0-4.58-1.22-8.22-7.15-8.22s-9.65,3.71-9.65,9.43v23h-6.07v-24.22c0-4.79-1.5-8.22-6.93-8.22-7.15,0-9.86,6.57-9.86,9.43v23H929Z"/><path class="cls-1" d="M1021.44,1192.64c-1.64,8.22-7.43,12.58-15.79,12.58-11.79,0-17.36-8.22-17.72-19.44,0-11.15,7.29-19.22,17.36-19.22,13.08,0,17.08,12.22,16.73,21.15H994.36c-.21,6.43,3.43,12.15,11.5,12.15,5.08,0,8.51-2.36,9.58-7.22Zm-5.86-10.29c-.35-5.79-4.57-10.43-10.64-10.43-6.29,0-10.22,4.71-10.58,10.43Z"/><path class="cls-1" d="M1028.3,1167.42H1034v5.86h.14c2.57-4.58,6.65-6.72,12-6.72,9.72,0,12.72,5.57,12.72,13.5v24.3h-6.08v-25c0-4.57-2.86-7.43-7.5-7.43-7.36,0-10.94,4.93-10.94,11.57v20.87h-6.07Z"/><path class="cls-1" d="M1076.47,1167.42h7.36v5.36h-7.36v22.93c0,2.86.78,3.29,4.57,3.29h2.79v5.36h-4.65c-6.29,0-8.79-1.29-8.79-8.07v-23.51h-6.29v-5.36h6.29v-11.08h6.08Z"/><path class="cls-2" d="M793.93,650.36,763.33,677l-79.91,69.65-83.3-71.4-30.93-26.52-33.61,23,30.92,26.52L683.64,798.68,796.7,700.13l30.59-26.66Z"/><polygon class="cls-2" points="827.29 673.48 796.7 700.13 763.33 677.02 680.98 619.93 600.12 675.27 566.5 698.26 535.58 671.74 569.19 648.75 681.12 572.16 793.93 650.36 827.29 673.48"/><path class="cls-3" d="M718,455.87A36.63,36.63,0,1,0,663.72,488l-12.28,63.26H712l-12.36-63.71A36.58,36.58,0,0,0,718,455.87Z"/><path class="cls-2" d="M680.93,206.15c-136.9,0-248.27,111.37-248.27,248.29a247.47,247.47,0,0,0,75.16,177.79L541,609.49a208.44,208.44,0,0,1-69-155c0-115.22,93.73-208.95,208.93-208.95s209,93.73,209,209A208.46,208.46,0,0,1,820.49,609.8l33.07,22.93a247.55,247.55,0,0,0,75.66-178.29C929.22,317.52,817.85,206.15,680.93,206.15Z"/><path class="cls-3" d="M680.93,269.1c-102.18,0-185.32,83.14-185.32,185.34a184.38,184.38,0,0,0,38.32,112.71l32.51-22.25A145.14,145.14,0,0,1,535,454.44c0-80.5,65.48-146,146-146s146,65.5,146,146a145.18,145.18,0,0,1-31.66,90.66l32.37,22.44a184.26,184.26,0,0,0,38.63-113.1C866.27,352.24,783.13,269.1,680.93,269.1Z"/><path class="cls-3" d="M680.93,331A123.32,123.32,0,0,0,585.14,532.1l32.61-22.31a84.05,84.05,0,1,1,126.45-.08l32.45,22.5A123.32,123.32,0,0,0,680.93,331Z"/><path class="cls-3" d="M681.05,884.08l-7.21-2.73C617.25,860,567.17,829,525,789.34c-41-38.58-75.64-86.42-102.92-142.2C395.78,593.42,375.57,530.77,362,460.92,348.88,393.66,341.52,317.67,340.11,235l-.2-11.81,10.25-5.88c51.83-29.72,105.63-52.09,159.92-66.49a613.19,613.19,0,0,1,164.13-20.34c54.29.62,110.49,8.37,167,23,55,14.28,111.89,35.51,169.14,63.11l11.29,5.45,0,12.53c.34,161.39-27.27,298.91-82.06,408.73C911.65,699.5,876.5,748,835.16,787.48a450.19,450.19,0,0,1-146.93,93.77ZM380.35,246.26c7.8,322.92,106.15,517.7,300.4,594.87C872.91,761.42,979.44,551.2,981.67,247.32,762.2,144.65,565.26,144.3,380.35,246.26Z"/><polygon class="cls-3" points="56.82 998.87 105.79 998.87 105.79 1126.24 148.55 1126.24 148.55 998.87 197.52 998.87 197.52 962.09 56.82 962.09 56.82 998.87"/><path class="cls-3" d="M318,1049.91v-.46c17.48-6.67,25.75-23.45,25.75-41.15,0-33.11-28.73-46.21-57.47-46.21H202.58v164.15h42.76v-59.78h32.42c20.23,0,22.76,17,23.91,33.57.69,4.83,1.15,20.46,4.83,26.21h42.3c-5.75-6.44-6.21-29.89-6.9-37C340.76,1073.59,335.24,1054.28,318,1049.91Zm-36.78-16.55H245.34v-37h34c12,0,21.61,5.52,21.61,17.7C301,1026.69,294.08,1033.36,281.21,1033.36Z"/><polygon class="cls-3" points="397.54 1058.19 478.01 1058.19 478.01 1025.08 397.54 1025.08 397.54 996.34 485.6 996.34 485.6 962.09 354.78 962.09 354.78 1126.24 487.89 1126.24 487.89 1089.45 397.54 1089.45 397.54 1058.19"/><path class="cls-3" d="M574.34,995.42c18.17,0,30.58,8.74,33.11,25.29h42.76c-1.15-39.54-39.31-62.07-75-62.07-49.89,0-81.84,37.93-81.84,85.52s31.95,85.53,81.84,85.53c41.62,0,72.42-24.6,75-67.14H607.45c-1.61,19.09-12.88,30.35-33.11,30.35-27.59,0-38.16-24.14-38.16-48.74S546.75,995.42,574.34,995.42Z"/><path class="cls-3" d="M758.27,1060.94c0,21.16-7.59,32-28.74,32s-28.74-10.8-28.74-32V962.09H658v96.33c0,47.59,21.84,71.27,71.5,71.27S801,1106,801,1058.42V962.09H758.27Z"/><path class="cls-3" d="M931.16,1049.91v-.46c17.47-6.67,25.75-23.45,25.75-41.15,0-33.11-28.74-46.21-57.48-46.21H815.75v164.15h42.76v-59.78h32.42c20.23,0,22.76,17,23.91,33.57.69,4.83,1.15,20.46,4.83,26.21H962c-5.75-6.44-6.21-29.89-6.9-37C953.92,1073.59,948.4,1054.28,931.16,1049.91Zm-36.78-16.55H858.51v-37h34c12,0,21.61,5.52,21.61,17.7C914.15,1026.69,907.25,1033.36,894.38,1033.36Z"/><rect class="cls-3" x="967.95" y="962.09" width="42.76" height="164.15"/><polygon class="cls-3" points="1256.48 962.09 1223.83 1028.76 1191.19 962.09 1176.39 962.09 1156.7 962.09 1142.68 962.09 1124.85 962.09 1016 962.09 1016 998.87 1064.97 998.87 1064.97 1126.24 1107.73 1126.24 1107.73 998.87 1110.7 998.87 1156.7 998.87 1164.03 998.87 1202.45 1065.08 1202.45 1126.24 1245.21 1126.24 1245.21 1065.08 1304.99 962.09 1256.48 962.09"/></svg>